<svg xmlns="http://www.w3.org/2000/svg" xmlns:xlink="http://www.w3.org/1999/xlink" viewBox="0 0 617.53 112.73"><defs><style>.cls-1{fill:#ff4b60;}.cls-2{fill:url(#linear-gradient);}.cls-3{fill:url(#linear-gradient-2);}.cls-4{fill:url(#linear-gradient-3);}.cls-5{fill:url(#linear-gradient-4);}.cls-6{fill:url(#linear-gradient-5);}.cls-7{fill:url(#linear-gradient-6);}.cls-8{fill:url(#linear-gradient-7);}.cls-9{fill:url(#linear-gradient-8);}.cls-10{fill:url(#linear-gradient-9);}.cls-11{fill:#ff3f41;stroke:#ff3f41;stroke-miterlimit:10;stroke-width:0.56px;}</style><linearGradient id="linear-gradient" x1="482.98" y1="108.15" x2="482.98" y2="29.24" gradientUnits="userSpaceOnUse"><stop offset="0.1" stop-color="#fbaf28"/><stop offset="0.29" stop-color="#f0605a"/><stop offset="0.63" stop-color="#ee3f60"/><stop offset="1" stop-color="#8b3091"/></linearGradient><linearGradient id="linear-gradient-2" x1="558.23" y1="108.15" x2="558.23" y2="29.24" xlink:href="#linear-gradient"/><linearGradient id="linear-gradient-3" x1="-15.72" y1="60.7" x2="159.63" y2="60.7" xlink:href="#linear-gradient"/><linearGradient id="linear-gradient-4" x1="70.93" y1="102.94" x2="69.81" y2="8.61" xlink:href="#linear-gradient"/><linearGradient id="linear-gradient-5" x1="25.94" y1="103.48" x2="24.83" y2="9.15" xlink:href="#linear-gradient"/><linearGradient id="linear-gradient-6" x1="27.82" y1="103.45" x2="26.7" y2="9.12" xlink:href="#linear-gradient"/><linearGradient id="linear-gradient-7" x1="49.43" y1="103.2" x2="48.31" y2="8.87" xlink:href="#linear-gradient"/><linearGradient id="linear-gradient-8" x1="48.68" y1="103.21" x2="47.56" y2="8.88" xlink:href="#linear-gradient"/><linearGradient id="linear-gradient-9" x1="47.69" y1="103.22" x2="46.58" y2="8.89" xlink:href="#linear-gradient"/></defs><g id="Headline_Header_Nav" data-name="Headline, Header, Nav"><path class="cls-1" d="M96.77,43.53H94.15a1.81,1.81,0,0,0-1.8,1.8v3.35a19.33,19.33,0,0,0-4-3,21.56,21.56,0,0,0-10.94-3,20.66,20.66,0,0,0-15,6.21,20.87,20.87,0,0,0,0,29.83,20.63,20.63,0,0,0,15,6.22,21,21,0,0,0,10.74-3,20.29,20.29,0,0,0,4.16-3.25v3.49A1.81,1.81,0,0,0,94.15,84h2.62a1.81,1.81,0,0,0,1.81-1.81V45.33A1.81,1.81,0,0,0,96.77,43.53ZM92.51,63.8a14.7,14.7,0,0,1-4.4,10.7A14.09,14.09,0,0,1,77.57,79,15.4,15.4,0,0,1,62.38,63.84,14.7,14.7,0,0,1,66.9,53.11a14.31,14.31,0,0,1,10.63-4.58,14.09,14.09,0,0,1,10.54,4.54A14.72,14.72,0,0,1,92.51,63.8Z"/><path class="cls-1" d="M127.56,42.63a21.26,21.26,0,0,0-10.68,2.94,19.78,19.78,0,0,0-4.22,3.2V45.33a1.81,1.81,0,0,0-1.81-1.8h-2.62a1.81,1.81,0,0,0-1.8,1.8V98.56a1.81,1.81,0,0,0,1.8,1.81h2.62a1.81,1.81,0,0,0,1.81-1.81V78.64a21.93,21.93,0,0,0,14.9,6.25,21.24,21.24,0,0,0,21.29-21.13,21.24,21.24,0,0,0-21.29-21.13ZM127.68,79A15.39,15.39,0,0,1,112.5,63.84,14.69,14.69,0,0,1,117,53.11a14.32,14.32,0,0,1,10.63-4.58,14.07,14.07,0,0,1,10.54,4.54,15.2,15.2,0,0,1,0,21.43A14.08,14.08,0,0,1,127.68,79Z"/><path class="cls-1" d="M193.23,43.53h-2.62a1.81,1.81,0,0,0-1.81,1.8v3.35a19.06,19.06,0,0,0-4-3,21.56,21.56,0,0,0-10.94-3,20.66,20.66,0,0,0-15,6.21,20.87,20.87,0,0,0,0,29.83,20.61,20.61,0,0,0,15,6.22,21,21,0,0,0,10.75-3,20,20,0,0,0,4.15-3.25v3.49A1.81,1.81,0,0,0,190.61,84h2.62a1.8,1.8,0,0,0,1.8-1.81V45.33A1.8,1.8,0,0,0,193.23,43.53ZM189,63.8a14.7,14.7,0,0,1-4.4,10.7A14.09,14.09,0,0,1,174,79a15.4,15.4,0,0,1-15.19-15.15,14.7,14.7,0,0,1,4.52-10.73A14.31,14.31,0,0,1,174,48.53a14.09,14.09,0,0,1,10.54,4.54A14.76,14.76,0,0,1,189,63.8Z"/><path class="cls-1" d="M227.3,45.61a13.93,13.93,0,0,0-8.44-3,15.57,15.57,0,0,0-7.87,2A15,15,0,0,0,209.12,46v-.62a1.81,1.81,0,0,0-1.81-1.8h-2.62a1.81,1.81,0,0,0-1.8,1.8V82.18a1.81,1.81,0,0,0,1.8,1.81h2.62a1.81,1.81,0,0,0,1.81-1.81V57.62a8.55,8.55,0,0,1,2.78-6.33,8.74,8.74,0,0,1,6.39-2.76A9.23,9.23,0,0,1,225,51.61a1.84,1.84,0,0,0,2,.39A1.81,1.81,0,0,0,228,50.33V47.05A1.79,1.79,0,0,0,227.3,45.61Z"/><path class="cls-1" d="M248,78.58a9.47,9.47,0,0,1-9.58-9.74V49.52h9.5a1.81,1.81,0,0,0,1.8-1.81V45.42a1.81,1.81,0,0,0-1.8-1.81h-9.5V30.51a1.81,1.81,0,0,0-1.8-1.8H234a1.81,1.81,0,0,0-1.81,1.8V68.84a14.9,14.9,0,0,0,4.66,11.25A15.66,15.66,0,0,0,248,84.48a1.81,1.81,0,0,0,1.8-1.81V80.38A1.81,1.81,0,0,0,248,78.58Z"/><path class="cls-1" d="M294.93,42.63a16.46,16.46,0,0,0-9.49,2.69,13.8,13.8,0,0,0-3.77,3.77,15.48,15.48,0,0,0-3.5-3.68c-4.81-3.63-10.44-3.49-15.36-.75a19.61,19.61,0,0,0-2.19,1.41v-.74a1.81,1.81,0,0,0-1.8-1.8H256.2a1.81,1.81,0,0,0-1.81,1.8V82.18A1.81,1.81,0,0,0,256.2,84h2.62a1.81,1.81,0,0,0,1.8-1.81V57.62a8.63,8.63,0,0,1,2.75-6.34,8.72,8.72,0,0,1,6.42-2.75A8.26,8.26,0,0,1,276,51.21a8.85,8.85,0,0,1,2.61,6.41V82.18A1.81,1.81,0,0,0,280.44,84h2.62a1.81,1.81,0,0,0,1.8-1.81V57.62a8.45,8.45,0,0,1,2.85-6.32,9.07,9.07,0,0,1,6.52-2.77,8.35,8.35,0,0,1,6.21,2.62A9,9,0,0,1,303,57.78v24.4A1.81,1.81,0,0,0,304.84,84h2.62a1.81,1.81,0,0,0,1.8-1.81V57.78c0-4.58-1.45-8.3-4.32-11.05A14.11,14.11,0,0,0,294.93,42.63Z"/><path class="cls-1" d="M353,50a20.67,20.67,0,0,0-15.83-7.31,21.14,21.14,0,0,0-15.44,6.22,20.14,20.14,0,0,0-6.26,14.75,20.64,20.64,0,0,0,6.29,14.9A20.25,20.25,0,0,0,336.61,85h.73a20.17,20.17,0,0,0,15.42-7,1.75,1.75,0,0,0,.47-1.21V72.6A1.79,1.79,0,0,0,352,70.88a1.81,1.81,0,0,0-2,.71,17.66,17.66,0,0,1-5.84,5.47,15.53,15.53,0,0,1-7.89,2,13.54,13.54,0,0,1-7.47-2.65l24.21-23.91A1.79,1.79,0,0,0,353,50ZM324.4,72.19a14.78,14.78,0,0,1-2.69-8.76,14.07,14.07,0,0,1,4.5-10.31,14.06,14.06,0,0,1,10.27-4.51,15.06,15.06,0,0,1,8.87,2.78Z"/><path class="cls-1" d="M378,42.63c-5.18,0-9.35,1.53-12.45,4.57V45.33a1.8,1.8,0,0,0-1.8-1.8h-2.62a1.81,1.81,0,0,0-1.81,1.8V82.18A1.81,1.81,0,0,0,361.09,84h2.62a1.8,1.8,0,0,0,1.8-1.81V60.73a11.41,11.41,0,0,1,3.76-8.53A12,12,0,0,1,378,48.53a11,11,0,0,1,8.31,3.62,11.92,11.92,0,0,1,3.48,8.58V82.18a1.8,1.8,0,0,0,1.8,1.81h2.62A1.81,1.81,0,0,0,396,82.18V60.73a17.68,17.68,0,0,0-5.19-12.81A17.36,17.36,0,0,0,378,42.63Z"/><path class="cls-1" d="M418.82,78.58a9.47,9.47,0,0,1-9.58-9.74V49.52h9.5a1.81,1.81,0,0,0,1.8-1.81V45.42a1.81,1.81,0,0,0-1.8-1.81h-9.5V30.51a1.81,1.81,0,0,0-1.8-1.8h-2.62a1.81,1.81,0,0,0-1.81,1.8V68.84a14.93,14.93,0,0,0,4.65,11.25,15.7,15.7,0,0,0,11.16,4.39,1.81,1.81,0,0,0,1.8-1.81V80.38A1.81,1.81,0,0,0,418.82,78.58Z"/><path class="cls-1" d="M447,64.58a17.72,17.72,0,0,0-5-4.65c-1.78-1.11-3.56-2.16-5.28-3.11a20.58,20.58,0,0,1-4.07-2.9,3.36,3.36,0,0,1-1.27-2.44,2.55,2.55,0,0,1,1-2.07,3.86,3.86,0,0,1,2.6-1c2.05,0,3.73,1,5.13,3.13a1.81,1.81,0,0,0,3.31-1V47.22A1.82,1.82,0,0,0,443,46a10,10,0,0,0-7.64-3.45,10.71,10.71,0,0,0-7.2,2.44,8,8,0,0,0-3,6.28,9.4,9.4,0,0,0,2.27,6.24,19,19,0,0,0,4.89,4.08l5.19,3.06a15.71,15.71,0,0,1,4,3.38A6.45,6.45,0,0,1,443,72.32a6,6,0,0,1-2.31,4.51,8.51,8.51,0,0,1-6,2.16c-3.84,0-6.57-1.91-8.34-5.82a1.81,1.81,0,0,0-3.45.74v3.93a1.73,1.73,0,0,0,.22.87,11.25,11.25,0,0,0,4.9,4.55A15.16,15.16,0,0,0,435,84.89,14.22,14.22,0,0,0,445,81a12.62,12.62,0,0,0,4.22-9.54A11.4,11.4,0,0,0,447,64.58Z"/><path class="cls-2" d="M532.51,90.1h-9.18V17.26a.91.91,0,0,0-1.71-.44l-40.9,73.76H447.15l25.36-15.85c12.34-7.74,18.6-17.53,18.6-29.1a30.18,30.18,0,0,0-7.93-20.83C477.89,19,470.84,16,462.23,16a29,29,0,0,0-21.64,9,29.92,29.92,0,0,0-7.53,13.36h5.19a26.53,26.53,0,0,1,5.82-10,23.57,23.57,0,0,1,18-7.78c7.17,0,13,2.49,17.32,7.41A25.7,25.7,0,0,1,486,45.53c0,10-5.77,18.68-17.15,25.87L432.94,94.11a.88.88,0,0,0,.47,1.62h45.9l.09,0h38.28v9.64a.91.91,0,0,0,.91.91h3.83a.91.91,0,0,0,.91-.91V95.75h9.18a.91.91,0,0,0,.91-.91V91A.91.91,0,0,0,532.51,90.1Zm-45.88,0,31-56v56Z"/><path class="cls-3" d="M587.71,17a.92.92,0,0,0-.78-.44h-57.4a.91.91,0,0,0-.91.91v3.37a.91.91,0,0,0,.91.91h49.88l-42.33,82a.91.91,0,0,0,.81,1.33h4.28a.91.91,0,0,0,.81-.49L587.74,17.9A.91.91,0,0,0,587.71,17Z"/><path class="cls-4" d="M53.43,50.07l-3.78,2.59a1.36,1.36,0,0,0-1.6-.25,1,1,0,0,0-.13,1.43L23,70.94l.34.39,25-17.1a1.38,1.38,0,0,0,1.58.22,1,1,0,0,0,.14-1.4l3.74-2.54Z"/><path class="cls-5" d="M70.82,27.21h0a.88.88,0,0,0-.61.25L68.71,29a.84.84,0,0,0,0,1.18.79.79,0,0,0,.57.23h0a.83.83,0,0,0,.59-.25l1.5-1.49a.84.84,0,0,0,0-1.18A.8.8,0,0,0,70.82,27.21Z"/><path class="cls-6" d="M26.35,72.77a.88.88,0,0,0-.58.25l-1.5,1.49a.84.84,0,0,0,0,1.18.82.82,0,0,0,.58.24.85.85,0,0,0,.6-.25l1.5-1.49h0a.88.88,0,0,0,.25-.61A.79.79,0,0,0,27,73,.83.83,0,0,0,26.35,72.77Z"/><path class="cls-7" d="M28.28,30.32a.85.85,0,0,0,0-1.18l-1.5-1.5a.83.83,0,0,0-1.17,0,.78.78,0,0,0-.24.59.83.83,0,0,0,.25.59l1.49,1.5a.85.85,0,0,0,.61.25A.81.81,0,0,0,28.28,30.32Z"/><path class="cls-8" d="M49.48,18.51a1,1,0,1,0-2,0v5.27a1,1,0,1,0,2,0Z"/><path class="cls-9" d="M48.46,80.64a1,1,0,0,0-1,1V87a1,1,0,1,0,2,0V81.69A1,1,0,0,0,48.46,80.64Z"/><path class="cls-10" d="M84.3,37.37A37.49,37.49,0,0,0,65.11,17.9,40.86,40.86,0,0,0,61,16.17,38.71,38.71,0,0,0,11.8,39.55a37.78,37.78,0,0,0,1.43,28.88,38.28,38.28,0,0,0,21.3,19.64l.52.22c.5.21,1,.43,1.54.62a37.77,37.77,0,0,0,27-.79L63.8,88l-.71-1.73-.26.11a35.93,35.93,0,0,1-25.62.75A35.42,35.42,0,0,1,16.84,68.87a36.09,36.09,0,0,1-3.5-17.72,1,1,0,0,0,1,.73h5.27a1,1,0,1,0,0-2H14.34a1.05,1.05,0,0,0-.95.59,36.89,36.89,0,0,1,2-9.51c6.72-18.93,27.43-29,46.18-22.44a35.75,35.75,0,0,1,21,19.63l.11.26,1.72-.74Z"/><path class="cls-11" d="M574.44,100.33a2,2,0,0,0-1.82,3.63,2.07,2.07,0,0,0,.93.24,1.71,1.71,0,0,0,.59-.11,2.1,2.1,0,0,0,1.08-1.1,2.07,2.07,0,0,0,.23-1.52A1.79,1.79,0,0,0,574.44,100.33Z"/><path class="cls-11" d="M582.41,80.94,580.6,80a.69.69,0,0,0-.8.15.68.68,0,0,0-.1.81,8.17,8.17,0,0,1,1.12,3.72,7.09,7.09,0,0,1-.73,3.6,7,7,0,0,1-4.27,3.62,7.43,7.43,0,0,1-9-10.28,7.14,7.14,0,0,1,2.45-2.74,8.5,8.5,0,0,1,3.63-1.35.67.67,0,0,0,.58-.56.68.68,0,0,0-.36-.72l-1.78-.9a.72.72,0,0,0-.5,0,9.64,9.64,0,0,0-6.15,5.07,9.86,9.86,0,0,0-.62,7.73,9.52,9.52,0,0,0,4.87,5.73,9.69,9.69,0,0,0,4.36,1,10.49,10.49,0,0,0,3.17-.51,9.34,9.34,0,0,0,5.76-4.86l.16-.31a9.44,9.44,0,0,0,.36-7.93A.66.66,0,0,0,582.41,80.94Z"/><path class="cls-11" d="M587.61,56.45a9.51,9.51,0,0,0-7.49-.5,9.66,9.66,0,0,0-5.76,5,9.76,9.76,0,0,0-.56,7.62,9.44,9.44,0,0,0,4.86,5.71,9.57,9.57,0,0,0,4.34,1,10.86,10.86,0,0,0,3.18-.5A9.37,9.37,0,0,0,592,70l.16-.32a9.28,9.28,0,0,0,.44-7.53A9.79,9.79,0,0,0,587.61,56.45Zm-1.1,2.37a7.2,7.2,0,0,1,3.7,4.26,6.87,6.87,0,0,1-.35,5.58A7.51,7.51,0,0,1,579.93,72a7.19,7.19,0,0,1-3.69-4.32,7,7,0,0,1,.33-5.64,6.87,6.87,0,0,1,4.28-3.61,7.86,7.86,0,0,1,2.39-.39A7.27,7.27,0,0,1,586.51,58.82Z"/><path class="cls-11" d="M609.33,33.92a.69.69,0,0,0-.34-.39l-10.4-5.21a6.78,6.78,0,0,0-5.49-.51,6.5,6.5,0,0,0-3.78,3.3,7.76,7.76,0,0,0-.87,4.51,6.48,6.48,0,0,0,.92,2.58,7.12,7.12,0,0,0-2.53.72,5.89,5.89,0,0,0-2.76,2.63,7.32,7.32,0,0,0-.74,3.58,9.33,9.33,0,0,0,.21,1.56l-.64-.32a.69.69,0,0,0-.92.31l-.56,1.11a.72.72,0,0,0,0,.52.66.66,0,0,0,.35.4l15.69,7.87a.66.66,0,0,0,.3.07.7.7,0,0,0,.62-.38l.55-1.11a.68.68,0,0,0-.3-.92L588.14,49a4.26,4.26,0,0,1-2.2-2.62,4.33,4.33,0,0,1,.21-3.46,4.11,4.11,0,0,1,2.58-2.17,4.39,4.39,0,0,1,3.41.27l10.46,5.25a.7.7,0,0,0,.53,0,.65.65,0,0,0,.39-.34l.56-1.11a.69.69,0,0,0-.3-.92l-10.46-5.25A4.18,4.18,0,0,1,591.15,36a4.45,4.45,0,0,1,.22-3.5,4.11,4.11,0,0,1,2.54-2.18,4.43,4.43,0,0,1,3.51.33l10.39,5.21a.69.69,0,0,0,.92-.31l.56-1.11A.7.7,0,0,0,609.33,33.92Z"/><path class="cls-1" d="M57.66,27.64a1.47,1.47,0,0,0-.88-.72,1.5,1.5,0,0,0-1.85,1L47.35,53.22a1.44,1.44,0,0,0,.11,1.13,1.46,1.46,0,0,0,.87.71,1.41,1.41,0,0,0,.45.07h.14a1.48,1.48,0,0,0,1.27-1l7.59-25.31A1.48,1.48,0,0,0,57.66,27.64Z"/><path class="cls-1" d="M49.49,52.45a1.45,1.45,0,0,0-1.09-.34L28.59,53.83l-.16,0a1.44,1.44,0,0,0-1,.57,1.48,1.48,0,0,0,1.17,2.38h.2l19.83-1.72h0a1.45,1.45,0,0,0,1-.52A1.53,1.53,0,0,0,50,53.45,1.5,1.5,0,0,0,49.49,52.45Z"/><circle class="cls-1" cx="48.63" cy="53.38" r="3.07"/></g></svg>